<svg width="176" height="82" viewBox="0 0 176 82" fill="none" xmlns="http://www.w3.org/2000/svg">
<path d="M16.5254 63C6.07617 63 0.851562 58.3288 0.851562 48.9863V13.8789H15.2559V43.7129C15.2559 44.6895 15.5163 45.7474 16.0371 46.8867C16.5905 48.026 17.7298 48.5957 19.4551 48.5957H20.7246V63H16.5254ZM22.873 48.5957L38.6934 24.377L50.7539 32.1895L40.1582 48.5957H52.2676V63H20.7734C20.2526 63 19.7318 62.8535 19.2109 62.5605C18.6576 62.2676 18.3809 62.0072 18.3809 61.7793V49.7188C18.3809 49.3607 18.6901 49.084 19.3086 48.8887C19.8945 48.6934 20.3828 48.5957 20.7734 48.5957H22.873ZM38.9863 18.3223C36.5124 18.3223 34.4453 17.4922 32.7852 15.832C31.125 14.1393 30.2949 12.056 30.2949 9.58203C30.2949 7.20573 31.125 5.1875 32.7852 3.52734C34.4453 1.83464 36.5124 0.988281 38.9863 0.988281C41.3626 0.988281 43.3809 1.83464 45.041 3.52734C46.7337 5.1875 47.5801 7.20573 47.5801 9.58203C47.5801 12.056 46.7337 14.1393 45.041 15.832C43.3809 17.4922 41.3626 18.3223 38.9863 18.3223ZM94.6992 63C93.2344 66.5482 91.1022 69.8522 88.3027 72.9121C85.5033 75.972 82.0039 78.7064 77.8047 81.1152C77.056 80.3014 76.2747 79.4062 75.4609 78.4297C74.6797 77.4857 73.8659 76.5254 73.0195 75.5488C72.2057 74.5723 71.4082 73.6283 70.627 72.7168C69.8783 71.8379 69.1947 71.0404 68.5762 70.3242C70.4642 69.3802 72.222 68.3548 73.8496 67.248C75.4772 66.1413 76.9583 64.7253 78.293 63H64.377C63.8561 62.2513 63.2702 60.819 62.6191 58.7031C62.0007 56.5547 61.6914 54.0807 61.6914 51.2812C61.6914 49.1654 62.0007 46.9355 62.6191 44.5918C63.2702 42.248 64.3281 40.1159 65.793 38.1953C67.2578 36.2747 69.1458 34.6797 71.457 33.4102C73.8008 32.1406 76.6491 31.5059 80.002 31.5059C82.8014 31.5059 85.194 32.0918 87.1797 33.2637C89.1979 34.4355 90.8743 35.9004 92.209 37.6582C93.5436 39.416 94.569 41.2878 95.2852 43.2734C96.0339 45.2266 96.5384 47.0007 96.7988 48.5957H100.07V63H94.6992ZM83.5664 48.5957C83.5664 47.3262 83.0618 46.2194 82.0527 45.2754C81.0762 44.2988 79.9206 43.8105 78.5859 43.8105C77.3815 43.8105 76.2585 44.2826 75.2168 45.2266C74.2077 46.138 73.7031 47.2611 73.7031 48.5957H83.5664ZM126.047 63C121.848 63 118.592 62.2676 116.281 60.8027C115.728 60.6725 115.223 60.3307 114.768 59.7773C114.312 60.2656 113.84 60.6074 113.352 60.8027C110.845 62.2676 107.557 63 103.488 63H100.07C99.5495 63 99.0286 62.8535 98.5078 62.5605C97.9544 62.2676 97.6777 62.0072 97.6777 61.7793V49.7188C97.6777 49.3607 97.987 49.084 98.6055 48.8887C99.1914 48.6934 99.6797 48.5957 100.07 48.5957H103.488C104.758 48.5957 105.751 48.1562 106.467 47.2773C107.215 46.3659 107.59 45.1777 107.59 43.7129V38.1953H121.848V43.7129C121.848 44.9173 122.173 46.0404 122.824 47.082C123.508 48.0911 124.582 48.5957 126.047 48.5957H129.465V63H126.047ZM114.572 28.2832C112.098 28.2832 110.031 27.4531 108.371 25.793C106.711 24.1328 105.881 22.0658 105.881 19.5918C105.881 17.1829 106.711 15.1484 108.371 13.4883C110.031 11.8281 112.098 10.998 114.572 10.998C116.981 10.998 119.016 11.8281 120.676 13.4883C122.336 15.1484 123.166 17.1829 123.166 19.5918C123.166 22.0658 122.336 24.1328 120.676 25.793C119.016 27.4531 116.981 28.2832 114.572 28.2832ZM173.557 52.9902C172.352 56.278 170.952 59.0449 169.357 61.291C167.762 63.5046 166.037 65.2949 164.182 66.6621C162.359 68.0293 160.487 69.0059 158.566 69.5918C156.646 70.2103 154.742 70.5195 152.854 70.5195C151.877 70.5195 150.949 70.4382 150.07 70.2754C149.191 70.1452 148.296 69.9499 147.385 69.6895C145.562 69.1686 143.837 68.3223 142.209 67.1504C140.581 65.9785 139.198 64.5951 138.059 63H129.074C128.521 62.9349 128.065 62.7721 127.707 62.5117C127.349 62.2513 127.17 62.0072 127.17 61.7793V49.7188C127.17 49.3607 127.414 49.084 127.902 48.8887C128.358 48.6934 128.781 48.5957 129.172 48.5957H129.66H135.178C135.308 47.8796 135.471 47.1146 135.666 46.3008C135.861 45.487 136.122 44.6895 136.447 43.9082L134.982 43.3223L141.184 30.2852L175.754 46.8867L173.557 52.9902ZM151.584 56.0176C152.691 56.3431 153.7 56.278 154.611 55.8223C155.523 55.334 156.337 54.6667 157.053 53.8203L149.484 50.207C149.257 50.793 149.126 51.4277 149.094 52.1113C149.061 52.7624 149.191 53.3646 149.484 53.918C149.68 54.569 149.989 55.0573 150.412 55.3828C150.835 55.6758 151.226 55.8874 151.584 56.0176Z" fill="#6DA975"/>
</svg>
